<mxfile host="app.diagrams.net" modified="2023-03-20T07:07:13.666Z" agent="5.0 (Windows NT 10.0; Win64; x64) AppleWebKit/537.36 (KHTML, like Gecko) Chrome/110.0.0.0 Safari/537.36" etag="aAgCOWxNN-DkZloLsbr_" version="21.0.4" type="github">
  <diagram name="第 1 页" id="pOd7ZQ0ND3ZFLBX5bLq9">
    <mxGraphModel dx="833" dy="548" grid="1" gridSize="10" guides="1" tooltips="1" connect="1" arrows="1" fold="1" page="1" pageScale="1" pageWidth="827" pageHeight="1169" math="0" shadow="0">
      <root>
        <mxCell id="0" />
        <mxCell id="1" parent="0" />
        <mxCell id="PMakBJLXeSVaQAxij3l3-1" value="&lt;h1&gt;自助化部分&lt;/h1&gt;&lt;p&gt;每次提交新巡检项要完成以下步骤&lt;/p&gt;&lt;p&gt;1. 在log模块配置文件中添加新dsl代码&lt;/p&gt;&lt;p&gt;2. 在log模块配置文件中添加新巡检项及对应dsl代码关联关系&lt;/p&gt;&lt;p&gt;&lt;b&gt;&lt;font color=&quot;#cc0000&quot;&gt;3. 在report模块中扩充数组，需发版&lt;/font&gt;&lt;/b&gt;&lt;/p&gt;&lt;p&gt;4. 在巡检脚本中添加巡检项和巡检逻辑&lt;/p&gt;&lt;p&gt;5. 在巡检脚本中添加文案文档&lt;/p&gt;&lt;p&gt;验证部分&lt;/p&gt;&lt;p&gt;1. 验证dsl是否能查出日志&lt;/p&gt;&lt;p&gt;2. 验证脚本是否能正确分析日志&lt;/p&gt;&lt;p&gt;验证完成后才可上架。&lt;/p&gt;" style="text;html=1;strokeColor=none;fillColor=none;spacing=5;spacingTop=-20;whiteSpace=wrap;overflow=hidden;rounded=0;" parent="1" vertex="1">
          <mxGeometry x="30" y="30" width="220" height="500" as="geometry" />
        </mxCell>
        <mxCell id="PMakBJLXeSVaQAxij3l3-2" value="" style="rounded=0;whiteSpace=wrap;html=1;" parent="1" vertex="1">
          <mxGeometry x="290" y="70" width="510" height="410" as="geometry" />
        </mxCell>
        <mxCell id="PMakBJLXeSVaQAxij3l3-5" style="edgeStyle=orthogonalEdgeStyle;rounded=0;orthogonalLoop=1;jettySize=auto;html=1;exitX=1;exitY=0.5;exitDx=0;exitDy=0;" parent="1" source="PMakBJLXeSVaQAxij3l3-3" target="PMakBJLXeSVaQAxij3l3-4" edge="1">
          <mxGeometry relative="1" as="geometry" />
        </mxCell>
        <mxCell id="PMakBJLXeSVaQAxij3l3-3" value="输入dsl" style="rounded=0;whiteSpace=wrap;html=1;" parent="1" vertex="1">
          <mxGeometry x="380" y="120" width="180" height="80" as="geometry" />
        </mxCell>
        <mxCell id="PMakBJLXeSVaQAxij3l3-4" value="返回部分非加工后日志" style="rounded=0;whiteSpace=wrap;html=1;" parent="1" vertex="1">
          <mxGeometry x="590" y="120" width="180" height="80" as="geometry" />
        </mxCell>
        <mxCell id="PMakBJLXeSVaQAxij3l3-6" value="测试环境" style="text;html=1;strokeColor=none;fillColor=none;align=center;verticalAlign=middle;whiteSpace=wrap;rounded=0;" parent="1" vertex="1">
          <mxGeometry x="280" y="50" width="80" height="20" as="geometry" />
        </mxCell>
        <mxCell id="PMakBJLXeSVaQAxij3l3-15" style="edgeStyle=orthogonalEdgeStyle;rounded=0;orthogonalLoop=1;jettySize=auto;html=1;exitX=1;exitY=0.5;exitDx=0;exitDy=0;" parent="1" source="PMakBJLXeSVaQAxij3l3-9" target="PMakBJLXeSVaQAxij3l3-13" edge="1">
          <mxGeometry relative="1" as="geometry" />
        </mxCell>
        <mxCell id="PMakBJLXeSVaQAxij3l3-9" value="配置巡检项及文案&lt;br&gt;（尽量做成表单）" style="rounded=0;whiteSpace=wrap;html=1;" parent="1" vertex="1">
          <mxGeometry x="380" y="210" width="180" height="80" as="geometry" />
        </mxCell>
        <mxCell id="PMakBJLXeSVaQAxij3l3-13" value="更新文案、更新巡检项" style="rounded=0;whiteSpace=wrap;html=1;" parent="1" vertex="1">
          <mxGeometry x="590" y="210" width="180" height="80" as="geometry" />
        </mxCell>
        <mxCell id="PMakBJLXeSVaQAxij3l3-18" style="edgeStyle=orthogonalEdgeStyle;rounded=0;orthogonalLoop=1;jettySize=auto;html=1;exitX=1;exitY=0.5;exitDx=0;exitDy=0;" parent="1" source="PMakBJLXeSVaQAxij3l3-16" target="PMakBJLXeSVaQAxij3l3-17" edge="1">
          <mxGeometry relative="1" as="geometry" />
        </mxCell>
        <mxCell id="PMakBJLXeSVaQAxij3l3-16" value="输入sdkappid、选择巡检项" style="rounded=0;whiteSpace=wrap;html=1;" parent="1" vertex="1">
          <mxGeometry x="380" y="300" width="180" height="80" as="geometry" />
        </mxCell>
        <mxCell id="PMakBJLXeSVaQAxij3l3-17" value="返回验证结果" style="rounded=0;whiteSpace=wrap;html=1;" parent="1" vertex="1">
          <mxGeometry x="590" y="300" width="180" height="80" as="geometry" />
        </mxCell>
        <mxCell id="pkPpZ5SSDUmFHS8OKQbJ-1" value="" style="rounded=0;whiteSpace=wrap;html=1;" vertex="1" parent="1">
          <mxGeometry x="40" y="500" width="760" height="150" as="geometry" />
        </mxCell>
        <mxCell id="pkPpZ5SSDUmFHS8OKQbJ-3" value="日志项上架流程" style="text;html=1;strokeColor=none;fillColor=none;align=center;verticalAlign=middle;whiteSpace=wrap;rounded=0;" vertex="1" parent="1">
          <mxGeometry x="40" y="470" width="90" height="30" as="geometry" />
        </mxCell>
        <mxCell id="pkPpZ5SSDUmFHS8OKQbJ-13" style="edgeStyle=orthogonalEdgeStyle;rounded=0;orthogonalLoop=1;jettySize=auto;html=1;exitX=1;exitY=0.5;exitDx=0;exitDy=0;entryX=0;entryY=0.5;entryDx=0;entryDy=0;" edge="1" parent="1" source="pkPpZ5SSDUmFHS8OKQbJ-4" target="pkPpZ5SSDUmFHS8OKQbJ-11">
          <mxGeometry relative="1" as="geometry" />
        </mxCell>
        <mxCell id="pkPpZ5SSDUmFHS8OKQbJ-16" value="" style="edgeStyle=orthogonalEdgeStyle;rounded=0;orthogonalLoop=1;jettySize=auto;html=1;shape=flexArrow;" edge="1" parent="1" source="pkPpZ5SSDUmFHS8OKQbJ-4" target="pkPpZ5SSDUmFHS8OKQbJ-15">
          <mxGeometry relative="1" as="geometry" />
        </mxCell>
        <mxCell id="pkPpZ5SSDUmFHS8OKQbJ-4" value="填写表单，新建dslId和dsl" style="rounded=0;whiteSpace=wrap;html=1;" vertex="1" parent="1">
          <mxGeometry x="70" y="510" width="210" height="40" as="geometry" />
        </mxCell>
        <mxCell id="pkPpZ5SSDUmFHS8OKQbJ-5" value="在后台文件夹中生成dsl模板文件" style="rounded=0;whiteSpace=wrap;html=1;" vertex="1" parent="1">
          <mxGeometry x="575" y="510" width="210" height="40" as="geometry" />
        </mxCell>
        <mxCell id="pkPpZ5SSDUmFHS8OKQbJ-14" style="edgeStyle=orthogonalEdgeStyle;rounded=0;orthogonalLoop=1;jettySize=auto;html=1;exitX=1;exitY=0.5;exitDx=0;exitDy=0;entryX=0;entryY=0.5;entryDx=0;entryDy=0;" edge="1" parent="1" source="pkPpZ5SSDUmFHS8OKQbJ-11" target="pkPpZ5SSDUmFHS8OKQbJ-5">
          <mxGeometry relative="1" as="geometry" />
        </mxCell>
        <mxCell id="pkPpZ5SSDUmFHS8OKQbJ-11" value="返回展示ES查询结果，确认无误" style="rounded=0;whiteSpace=wrap;html=1;" vertex="1" parent="1">
          <mxGeometry x="320" y="510" width="210" height="40" as="geometry" />
        </mxCell>
        <mxCell id="pkPpZ5SSDUmFHS8OKQbJ-18" value="" style="edgeStyle=orthogonalEdgeStyle;rounded=0;orthogonalLoop=1;jettySize=auto;html=1;" edge="1" parent="1" source="pkPpZ5SSDUmFHS8OKQbJ-15" target="pkPpZ5SSDUmFHS8OKQbJ-17">
          <mxGeometry relative="1" as="geometry" />
        </mxCell>
        <mxCell id="pkPpZ5SSDUmFHS8OKQbJ-15" value="填写表单，新建日志项和dslId的映射(或在已有日志项上追加dsl）" style="rounded=0;whiteSpace=wrap;html=1;" vertex="1" parent="1">
          <mxGeometry x="70" y="585" width="210" height="40" as="geometry" />
        </mxCell>
        <mxCell id="pkPpZ5SSDUmFHS8OKQbJ-17" value="更新日志配置文件，即时生效" style="rounded=0;whiteSpace=wrap;html=1;" vertex="1" parent="1">
          <mxGeometry x="575" y="585" width="210" height="40" as="geometry" />
        </mxCell>
        <mxCell id="pkPpZ5SSDUmFHS8OKQbJ-21" value="" style="rounded=0;whiteSpace=wrap;html=1;" vertex="1" parent="1">
          <mxGeometry x="40" y="700" width="760" height="200" as="geometry" />
        </mxCell>
        <mxCell id="pkPpZ5SSDUmFHS8OKQbJ-22" value="巡检项上架流程" style="text;html=1;strokeColor=none;fillColor=none;align=center;verticalAlign=middle;whiteSpace=wrap;rounded=0;" vertex="1" parent="1">
          <mxGeometry x="30" y="680" width="110" height="20" as="geometry" />
        </mxCell>
        <mxCell id="pkPpZ5SSDUmFHS8OKQbJ-23" value="填写表单，填写巡检项id和巡检项规则" style="rounded=0;whiteSpace=wrap;html=1;" vertex="1" parent="1">
          <mxGeometry x="70" y="710" width="220" height="50" as="geometry" />
        </mxCell>
        <mxCell id="pkPpZ5SSDUmFHS8OKQbJ-26" value="注：这里巡检项规则是有限制的，自助上架建议先开放逻辑不复杂且结果较为确定的巡检项，且尽可能保证语义化" style="text;html=1;strokeColor=none;fillColor=none;align=center;verticalAlign=middle;whiteSpace=wrap;rounded=0;" vertex="1" parent="1">
          <mxGeometry x="340" y="715" width="350" height="30" as="geometry" />
        </mxCell>
        <mxCell id="pkPpZ5SSDUmFHS8OKQbJ-27" value="填写表单，填写巡检项id和巡检项规则" style="rounded=0;whiteSpace=wrap;html=1;" vertex="1" parent="1">
          <mxGeometry x="70" y="775" width="220" height="50" as="geometry" />
        </mxCell>
      </root>
    </mxGraphModel>
  </diagram>
</mxfile>
